<svg width="24" height="24" viewBox="0 0 24 24" fill="none" xmlns="http://www.w3.org/2000/svg">
<g id="Icons/Menu">
<rect id="Bg" width="24" height="24" fill="white" fill-opacity="0.01"/>
<path id="Fill 1" fill-rule="evenodd" clip-rule="evenodd" d="M6.95717 7.66214H17.1822C17.6099 7.66214 17.9568 7.31523 17.9568 6.88747C17.9568 6.45993 17.6099 6.11279 17.1822 6.11279H6.95717C6.5294 6.11279 6.1825 6.45993 6.1825 6.88747C6.1825 7.31523 6.5294 7.66214 6.95717 7.66214Z" fill="#121212"/>
<path id="Fill 3" fill-rule="evenodd" clip-rule="evenodd" d="M17.1823 16.338H6.95729C6.52953 16.338 6.18262 16.6849 6.18262 17.1126C6.18262 17.5402 6.52953 17.8873 6.95729 17.8873H17.1823C17.6101 17.8873 17.957 17.5402 17.957 17.1126C17.957 16.6849 17.6101 16.338 17.1823 16.338Z" fill="#121212"/>
<path id="Fill 5" fill-rule="evenodd" clip-rule="evenodd" d="M17.1823 11.2256H6.95729C6.52953 11.2256 6.18262 11.5726 6.18262 12.0003C6.18262 12.4279 6.52953 12.775 6.95729 12.775H17.1823C17.6101 12.775 17.957 12.4279 17.957 12.0003C17.957 11.5726 17.6101 11.2256 17.1823 11.2256Z" fill="#121212"/>
</g>
</svg>
